# xmcd CD database file
# Copyright (C) 1996 Ti Kan
#
# Track frame offsets:
#  182
#  11497
#  27160
#  38652
#  59652
#  84045
#  98152
#  110197
#  130175
#  142030
#  164717
#  185167
#
# Disc length: 2646 seconds
#
# Revision: 1
# Processed by: cddbd v1.4b41PL1 Copyright (c) Steve Scherf et al.
# Submitted via: CDWizzard Release:4.12
#
DISCID=a50a540c
DTITLE=Smooth Sounds Of Great Jazz - Too Marvelous
DYEAR=1900
DGENRE=
TTITLE0=The More I See You (Johnny Hartman)
TTITLE1=Cheerful Little Earful (Barney Kessel)
TTITLE2=Too Marvelous For Words (Ella Fitzgerald)
TTITLE3=Nice Work If You Can Get It (Jeanne Bryson and Terrence Blanchard)
TTITLE4=Canteloupe Island (Herbie Hancock)
TTITLE5=Pennies From Heaven (Sarah Vaughan)
TTITLE6=Look For The Silver Lining (Chet Baker)
TTITLE7=Come Rain Or Come Shine (Billie Holiday)
TTITLE8=Singin' In The Rain (Dave Brubeck)
TTITLE9=Frim Fram Sauce (Diana Krall)
TTITLE10=Liza (Oscar Peterson)
TTITLE11=I'm Walkin' (Ernestine Anderson)
EXTD=
EXTT0=
EXTT1=
EXTT2=
EXTT3=
EXTT4=
EXTT5=
EXTT6=
EXTT7=
EXTT8=
EXTT9=
EXTT10=
EXTT11=
PLAYORDER=
